<?xml version="1.0" encoding="utf-8"?>
<!-- Generator: Adobe Illustrator 22.1.0, SVG Export Plug-In . SVG Version: 6.00 Build 0)  -->
<svg version="1.1" id="Layer_1" xmlns="http://www.w3.org/2000/svg" xmlns:xlink="http://www.w3.org/1999/xlink" x="0px" y="0px"
	 viewBox="0 0 920.9 850.8" style="enable-background:new 0 0 920.9 850.8;" xml:space="preserve">
<style type="text/css">
	.st0{fill:url(#SVGID_1_);}
</style>
<g id="Layer_x0020_1">
	<linearGradient id="SVGID_1_" gradientUnits="userSpaceOnUse" x1="97.0826" y1="104.308" x2="1038.153" y2="647.6352">
		<stop  offset="0" style="stop-color:#127147"/>
		<stop  offset="8.567137e-02" style="stop-color:#16794D"/>
		<stop  offset="0.4567" style="stop-color:#279765"/>
		<stop  offset="0.7745" style="stop-color:#31A974"/>
		<stop  offset="1" style="stop-color:#35B079"/>
	</linearGradient>
	<path class="st0" d="M5.7,403.3c4.9,33.4,12.7,67,19.2,100.6c8,42.3,18.2,86,34.6,121.9c10.1,22.4,22.8,41.6,38.9,55.6
		c17.7,15.4,38.4,27,60.8,34.4s44.6,10.6,71.2,15.4c45.4,8.2,97.2,16.7,106.5,18c106.9,19.2,214,37.8,321.3,56.4
		c87.5,15.2,175.1,30.2,262.6,45.2V0C839.1,16.9,757.6,34,676,50.9c-53.2,11.2-106.3,22.4-159.5,33.4
		c-75.2,15.6-150.6,30.8-225.8,46.3c-104.4,21.5-193.5,28.3-244.6,74.4C7,240-9.7,298.1,5.7,403.3z"/>
</g>
</svg>
